<?xml version="1.0" encoding="UTF-8"?>
<svg width="752pt" height="752pt" version="1.1" viewBox="0 0 752 752" xmlns="http://www.w3.org/2000/svg">
 <path d="m526.16 220.75h-300.29c-24.477 0-44.414 19.949-44.414 44.43v221.65c0 24.477 19.934 44.43 44.414 44.43h300.31c24.477 0 44.398-19.949 44.398-44.43v-221.65c-0.015624-24.492-19.922-44.43-44.414-44.43zm-300.29 29.602h300.31c8.1562 0 14.801 6.6445 14.801 14.828v16.5l-75.238 52.062c-15.941-33.652-50.102-57.035-89.734-57.035-39.602 0-73.789 23.383-89.699 57.035l-75.27-52.062v-16.5c0-8.1836 6.6445-14.828 14.832-14.828zm300.29 251.29h-300.29c-8.1836 0-14.828-6.6445-14.828-14.828v-169.16l66.539 46.012c-0.52344 4.0547-0.86328 8.1367-0.86328 12.324 0 54.742 44.547 99.289 99.289 99.289 14.887 0 29.23-3.2109 42.609-9.5586l-12.684-26.742c-9.3984 4.4531-19.461 6.7031-29.926 6.7031-38.418 0-69.691-31.27-69.691-69.691 0-38.418 31.27-69.691 69.691-69.691 38.449 0 69.691 31.27 69.691 69.691 0 5.7266-0.69531 11.395-2.0859 16.914-0.57812 2.2773-4.2773 10.832-8.582 10.922-2.9141-1.9375-6.1289-14.887-5.7266-27.23h-0.058594c0-0.17578 0.058594-0.33984 0.058594-0.51953 0-46.945-25.633-57.051-47.609-57.258-25.027 0-47.98 18.59-55.809 45.211-5.7578 19.504-3.5508 37.457 6.2148 50.523 8.9375 11.941 23.5 18.797 39.945 18.797 14.398 0 27.438-5.5195 37.5-14.34 1.1836 1.8203 2.457 3.582 3.9648 5.1484 5.7852 6.0078 13.215 9.1914 21.445 9.1914 23.133 0 34.57-21.828 37.398-33.297 1.9688-7.8281 2.9453-15.926 2.9453-24.051 0-4.1875-0.33984-8.2734-0.84375-12.312l66.508-46.012v169.16c0 8.1602-6.6445 14.805-14.801 14.805zm-126.45-125.59v0.058594c0 15.23-12.402 27.629-27.676 27.629-7.1328 0-12.891-2.457-16.219-6.9102-4.0391-5.4297-4.6016-14.105-1.5547-24.418 4.6484-15.746 17.316-23.988 27.602-23.988 8.3438 0.085937 17.848 0.16016 17.848 27.629z"/>
</svg>
