<?xml version="1.0" encoding="UTF-8"?>
<svg width="752pt" height="752pt" version="1.1" viewBox="0 0 752 752" xmlns="http://www.w3.org/2000/svg">
 <path d="m422.18 346.4c28.078-13.98 48.312-39.93 55.023-70.57 6.7109-30.641-0.82422-62.676-20.488-87.113-19.664-24.438-49.344-38.648-80.711-38.648s-61.043 14.211-80.707 38.648c-19.668 24.438-27.199 56.473-20.488 87.113 6.7109 30.641 26.945 56.59 55.023 70.57-49.09 10.617-93.086 37.676-124.71 76.699-31.621 39.02-48.973 87.668-49.188 137.89v11.102c0 3.9258 1.5586 7.6875 4.3359 10.465 2.7734 2.7734 6.5391 4.3359 10.465 4.3359h410.68c3.9258 0 7.6875-1.5625 10.465-4.3359 2.7734-2.7773 4.332-6.5391 4.332-10.465v-11.102c-0.21875-50.242-17.594-98.906-49.242-137.93-31.652-39.027-75.68-66.07-124.8-76.66zm-120.17-93.234c0-19.625 7.7969-38.449 21.672-52.324 13.879-13.879 32.699-21.676 52.324-21.676s38.449 7.7969 52.324 21.676c13.879 13.875 21.676 32.699 21.676 52.324s-7.7969 38.445-21.676 52.32c-13.875 13.879-32.699 21.676-52.324 21.676s-38.445-7.7969-52.324-21.676c-13.875-13.875-21.672-32.695-21.672-52.32zm-116.47 304.12c0-50.535 20.078-99 55.809-134.73 35.734-35.73 84.199-55.809 134.73-55.809 50.535 0 99 20.078 134.73 55.809 35.734 35.734 55.809 84.199 55.809 134.73z"/>
</svg>
